<?xml version="1.0" standalone="no"?>
<!DOCTYPE svg PUBLIC "-//W3C//DTD SVG 20010904//EN"
 "http://www.w3.org/TR/2001/REC-SVG-20010904/DTD/svg10.dtd">
<svg version="1.0" xmlns="http://www.w3.org/2000/svg"
 width="281.000000pt" height="331.000000pt" viewBox="0 0 281.000000 331.000000"
 preserveAspectRatio="xMidYMid meet">

<g transform="translate(0.000000,331.000000) scale(0.100000,-0.100000)"
fill="#000000" stroke="none">
<path d="M1010 3280 c-128 -11 -234 -42 -361 -105 -90 -45 -105 -54 -168 -103
-31 -23 -80 -60 -108 -82 -29 -22 -59 -53 -67 -68 -8 -15 -24 -36 -36 -47 -21
-19 -80 -101 -80 -111 0 -3 -13 -24 -28 -47 -16 -23 -34 -58 -41 -77 -8 -19
-19 -48 -26 -65 -24 -54 -53 -151 -74 -250 -18 -81 -24 -282 -12 -385 18 -154
23 -180 32 -186 5 -3 9 -18 9 -33 0 -15 4 -31 8 -36 4 -6 14 -28 21 -50 19
-60 50 -134 61 -145 3 -3 12 -18 20 -35 14 -27 59 -93 96 -138 8 -9 14 -21 14
-26 0 -4 9 -16 20 -26 11 -10 20 -23 20 -30 0 -7 9 -20 20 -30 11 -10 20 -23
20 -30 0 -6 13 -24 30 -40 16 -16 30 -34 30 -39 0 -6 18 -35 40 -64 22 -29 40
-54 40 -57 0 -8 60 -92 75 -105 8 -7 15 -18 15 -25 0 -6 9 -20 20 -30 11 -10
20 -22 20 -27 0 -6 9 -22 21 -36 48 -63 119 -163 119 -169 0 -4 7 -15 17 -25
9 -10 21 -27 27 -37 6 -10 36 -53 66 -96 30 -43 60 -85 65 -95 6 -10 17 -26
25 -35 8 -9 19 -25 25 -34 33 -56 106 -159 119 -170 9 -8 16 -20 16 -27 0 -37
63 0 94 55 6 11 29 46 52 78 142 202 141 197 72 248 -54 40 -160 175 -196 250
-47 96 -52 109 -52 126 0 10 -4 20 -9 23 -32 20 -32 382 0 402 5 3 9 12 9 21
0 19 52 122 83 165 68 95 200 202 282 228 22 7 53 17 68 23 36 13 293 13 310
0 6 -5 32 -16 57 -23 25 -8 47 -17 50 -21 3 -4 22 -16 43 -28 l37 -21 38 21
c20 12 42 24 47 29 6 4 32 13 59 21 55 16 86 48 86 90 0 15 5 31 10 34 6 3 10
30 10 59 0 28 5 57 10 62 14 14 7 340 -9 414 -7 30 -15 72 -18 93 -3 20 -9 40
-14 43 -5 3 -9 15 -9 28 0 12 -4 26 -8 32 -4 5 -14 27 -21 49 -22 69 -77 171
-152 281 -24 36 -164 175 -217 216 -107 84 -275 160 -457 207 -54 14 -260 20
-365 11z m300 -722 c62 -24 84 -39 148 -102 89 -86 120 -156 129 -288 4 -52 0
-82 -17 -130 -35 -102 -46 -120 -107 -179 -154 -149 -373 -172 -544 -57 -32
20 -68 51 -80 68 -13 17 -33 43 -45 58 -39 50 -64 141 -64 232 0 122 33 201
120 290 68 70 120 100 215 124 36 9 209 -2 245 -16z"/>
<path d="M1585 1491 c-3 -6 -17 -11 -30 -11 -13 0 -26 -4 -29 -9 -3 -4 -19
-11 -35 -14 -39 -8 -159 -128 -191 -193 -73 -145 -67 -315 17 -475 13 -26 31
-53 39 -60 8 -6 14 -17 14 -23 0 -14 150 -159 239 -231 60 -48 135 -113 258
-221 32 -28 79 -68 106 -88 l47 -36 38 24 c20 13 62 49 92 80 30 31 59 56 64
56 5 0 38 26 72 58 35 31 95 84 134 117 96 81 250 227 250 236 0 4 16 31 35
60 19 30 35 61 35 71 0 9 5 20 10 23 6 3 10 17 10 30 0 13 5 27 10 30 16 10
12 233 -6 284 -49 143 -127 226 -249 267 -28 9 -58 21 -67 25 -24 12 -145 11
-153 -1 -3 -5 -19 -10 -34 -10 -31 0 -83 -23 -101 -45 -7 -8 -18 -15 -25 -15
-7 0 -33 -22 -59 -50 -26 -27 -50 -50 -54 -50 -5 0 -26 18 -47 41 -61 62 -137
110 -200 124 -56 13 -183 17 -190 6z m195 -113 c54 -17 148 -115 191 -198 51
-101 47 -101 95 -7 46 94 106 157 182 195 67 32 190 32 256 -2 120 -61 192
-190 183 -330 -10 -154 -47 -226 -186 -363 -58 -57 -108 -103 -113 -103 -5 0
-37 -26 -71 -58 -35 -31 -85 -76 -113 -99 -27 -22 -78 -66 -114 -96 -75 -64
-72 -65 -167 22 -131 118 -175 156 -186 160 -7 2 -32 23 -57 47 -25 23 -58 53
-75 65 -98 74 -168 161 -222 274 -25 53 -28 71 -28 160 0 98 1 102 40 174 40
74 71 106 142 147 31 18 54 23 121 23 45 1 100 -5 122 -11z"/>
</g>
</svg>
