<?xml version="1.0" standalone="no"?>
<!DOCTYPE svg PUBLIC "-//W3C//DTD SVG 20010904//EN"
 "http://www.w3.org/TR/2001/REC-SVG-20010904/DTD/svg10.dtd">
<svg version="1.0" xmlns="http://www.w3.org/2000/svg"
 width="849.000000pt" height="801.000000pt" viewBox="0 0 849.000000 801.000000"
 preserveAspectRatio="xMidYMid meet">

<g transform="translate(0.000000,801.000000) scale(0.100000,-0.100000)"
fill="#000000" stroke="none">
<path d="M6180 7833 c-846 -599 -1522 -1203 -2280 -2038 -294 -323 -538 -610
-888 -1043 -63 -78 -117 -140 -120 -137 -3 2 6 19 20 37 14 18 59 83 100 143
41 61 121 175 178 255 56 80 117 165 134 189 47 66 356 483 438 591 104 137
907 937 1675 1669 215 205 212 201 164 245 -20 18 -21 17 -108 -45 -485 -347
-1032 -874 -1526 -1468 -165 -199 -166 -200 -472 -516 -531 -549 -917 -957
-1326 -1405 -52 -58 -147 -161 -210 -229 -62 -68 -126 -138 -141 -155 -41 -47
-33 -20 10 38 46 61 207 279 526 711 334 453 587 794 765 1034 84 113 208 280
275 370 241 328 333 451 426 576 52 70 103 140 114 156 18 29 18 30 0 50 -42
47 -46 45 -140 -69 -203 -246 -714 -847 -828 -972 -23 -25 -70 -79 -106 -120
-60 -68 -136 -153 -359 -400 -130 -143 -317 -346 -396 -429 -38 -41 -77 -82
-85 -91 -113 -125 -593 -620 -597 -616 -4 4 103 150 205 281 34 42 364 473
577 750 34 44 112 145 173 225 171 223 198 257 523 680 166 217 400 521 518
675 118 154 236 306 263 338 26 32 48 64 48 71 0 17 -43 56 -62 56 -9 0 -31
-17 -49 -37 -18 -21 -125 -135 -238 -253 -113 -118 -246 -257 -296 -309 -49
-53 -142 -150 -206 -216 -109 -113 -696 -729 -1099 -1154 -240 -252 -476 -492
-459 -465 18 28 62 84 358 459 247 312 466 591 550 698 25 33 64 82 87 110 71
89 265 335 400 507 407 517 814 1032 851 1078 45 55 49 62 35 62 -7 0 -134
-97 -207 -158 -11 -9 -94 -78 -185 -152 -622 -507 -1016 -859 -1523 -1359
-130 -128 -237 -229 -237 -224 0 6 142 188 316 404 1067 1330 1264 1577 1264
1587 0 24 -742 -536 -1085 -818 -262 -216 -541 -458 -780 -675 -87 -79 -452
-421 -475 -445 -38 -40 -151 -141 -145 -130 47 79 371 479 609 750 416 473
923 981 1375 1374 127 109 110 107 -95 -12 -480 -280 -708 -434 -1064 -718
-163 -130 -313 -258 -420 -358 -204 -191 -205 -191 -85 -46 269 326 639 699
1083 1091 46 40 79 75 73 77 -12 4 -252 -119 -448 -230 -427 -241 -860 -601
-1193 -993 -124 -146 -116 -132 -94 -156 44 -48 46 -47 151 78 129 154 367
393 523 524 135 113 301 240 365 279 54 33 46 23 -151 -185 -156 -165 -356
-387 -440 -490 -221 -271 -393 -503 -571 -769 -73 -110 -133 -205 -133 -210 0
-6 15 -21 33 -34 l32 -23 27 33 c15 18 71 87 123 153 349 437 841 924 1255
1242 36 27 103 79 150 115 84 64 164 118 176 118 3 0 -100 -109 -229 -242
-364 -377 -683 -736 -882 -993 -16 -21 -42 -52 -56 -69 -154 -183 -619 -821
-619 -849 0 -7 13 -23 30 -35 l30 -22 422 424 c510 511 839 814 1333 1226 213
177 571 464 619 495 l29 19 -13 -24 c-7 -14 -43 -61 -80 -105 -36 -44 -410
-510 -831 -1035 -421 -525 -893 -1114 -1050 -1309 -344 -429 -339 -422 -339
-436 0 -6 14 -22 32 -35 l31 -23 26 30 c14 16 53 63 86 103 559 687 1482 1635
2215 2275 410 358 430 375 430 358 0 -4 -66 -91 -148 -194 -81 -102 -286 -362
-457 -579 -170 -217 -416 -528 -545 -691 -415 -525 -694 -880 -715 -908 -20
-27 -419 -532 -547 -691 -37 -47 -68 -92 -68 -101 0 -17 40 -59 57 -59 6 0 30
21 54 48 42 46 362 382 583 612 61 63 190 198 286 300 96 102 229 241 295 310
66 69 165 172 220 230 55 58 159 166 230 240 72 75 209 219 305 320 96 102
222 234 280 295 58 60 125 131 149 158 24 26 46 45 49 43 2 -3 -33 -53 -79
-113 -139 -181 -199 -259 -375 -488 -244 -318 -262 -341 -446 -582 -92 -120
-202 -263 -245 -318 -42 -55 -104 -136 -138 -180 -34 -44 -137 -179 -231 -299
-93 -121 -209 -273 -259 -337 -49 -65 -153 -199 -230 -299 -77 -99 -152 -197
-168 -217 l-27 -37 27 -28 c15 -15 32 -28 37 -28 13 0 447 427 717 705 421
434 839 882 1108 1185 124 139 199 220 207 220 8 0 -32 -54 -520 -711 -72 -97
-178 -241 -236 -320 -58 -79 -179 -243 -270 -365 -91 -122 -206 -278 -256
-345 -357 -485 -564 -764 -610 -825 -30 -39 -54 -78 -54 -86 0 -18 48 -60 62
-56 4 2 47 48 95 104 274 315 961 1081 1233 1374 519 558 882 941 888 936 2
-3 -16 -33 -40 -68 -204 -288 -531 -759 -663 -953 -88 -129 -189 -278 -225
-330 -36 -52 -128 -187 -205 -300 -77 -113 -169 -248 -205 -300 -58 -84 -159
-232 -462 -678 l-88 -128 27 -25 c15 -14 33 -23 42 -22 8 2 136 170 284 373
748 1027 1344 1797 1852 2390 619 723 1242 1344 1875 1871 166 137 394 316
412 323 19 6 -28 -53 -252 -324 -118 -143 -233 -283 -255 -310 -22 -27 -74
-90 -115 -141 -41 -50 -131 -161 -199 -245 -69 -85 -152 -188 -186 -229 -171
-210 -778 -967 -890 -1111 -33 -42 -159 -202 -279 -355 -461 -585 -651 -829
-996 -1279 -58 -75 -132 -172 -165 -215 -33 -43 -90 -118 -127 -166 -37 -49
-107 -141 -156 -204 -335 -439 -612 -811 -612 -823 0 -18 46 -50 64 -45 7 2
35 30 62 63 121 149 319 393 434 534 69 85 154 191 190 235 107 132 455 558
614 751 81 99 164 200 185 225 154 188 454 548 946 1134 435 518 1195 1389
1204 1381 2 -3 -45 -66 -105 -142 -623 -794 -1297 -1692 -1847 -2461 -28 -40
-77 -108 -108 -150 -50 -70 -485 -689 -590 -842 -279 -402 -639 -940 -639
-953 0 -5 8 -16 17 -24 49 -38 44 -42 181 140 71 94 174 231 229 302 54 72
177 234 273 360 95 127 201 266 235 310 34 44 106 139 160 210 54 72 126 166
160 210 34 44 149 195 256 335 602 786 1097 1421 1578 2020 285 355 574 711
641 790 26 30 78 93 115 140 100 124 209 250 213 245 2 -1 -43 -71 -100 -154
-178 -261 -198 -290 -387 -565 -101 -149 -202 -297 -226 -330 -23 -34 -81
-119 -130 -191 -49 -71 -121 -177 -161 -235 -39 -58 -102 -150 -140 -205 -38
-56 -120 -175 -182 -265 -175 -256 -899 -1313 -1072 -1567 -85 -125 -211 -309
-280 -409 -69 -101 -168 -245 -220 -321 -52 -76 -127 -185 -167 -243 -40 -58
-115 -168 -167 -245 -52 -77 -144 -211 -203 -297 -59 -87 -143 -208 -185 -271
-43 -62 -78 -118 -78 -124 0 -12 47 -53 61 -53 8 0 95 108 514 635 207 261
670 846 715 905 25 32 164 208 310 392 525 661 608 765 729 918 335 425 475
599 479 595 2 -2 -27 -47 -64 -100 -38 -53 -87 -121 -110 -153 -221 -309 -774
-1095 -940 -1337 -30 -44 -100 -145 -155 -225 -55 -80 -147 -215 -205 -300
-58 -85 -166 -245 -241 -355 -75 -110 -275 -409 -446 -665 -170 -256 -325
-488 -343 -515 -19 -28 -34 -55 -34 -61 0 -15 59 -56 70 -49 10 6 29 30 373
480 114 149 223 290 242 315 93 121 174 226 330 430 94 122 197 257 230 300
33 43 137 178 230 300 94 122 197 257 230 300 33 43 137 178 231 301 95 123
295 384 445 579 150 195 309 402 353 460 44 58 157 205 251 327 93 122 233
304 309 405 195 255 377 488 383 488 2 0 1 -6 -3 -12 -10 -17 -257 -382 -349
-515 -97 -142 -314 -460 -520 -763 -95 -140 -177 -260 -182 -265 -4 -6 -69
-100 -143 -210 -162 -241 -430 -635 -666 -980 -46 -66 -135 -196 -198 -290
-64 -93 -165 -242 -225 -330 -60 -88 -169 -248 -242 -355 -73 -107 -196 -287
-273 -400 -77 -113 -191 -279 -253 -370 -62 -91 -138 -202 -169 -248 l-57 -83
30 -31 c17 -17 36 -27 42 -24 10 6 119 141 176 217 11 15 97 125 191 245 252
323 801 1028 864 1109 29 39 115 148 189 244 75 95 188 240 251 322 63 81 162
208 220 281 57 73 262 336 455 583 620 794 668 855 672 851 3 -2 -31 -53 -74
-113 -44 -59 -181 -250 -305 -423 -123 -173 -272 -380 -329 -460 -58 -80 -179
-248 -270 -374 -328 -457 -376 -523 -479 -666 -196 -273 -413 -575 -448 -625
-20 -27 -54 -75 -76 -105 -22 -30 -89 -122 -148 -205 -109 -154 -118 -167
-230 -320 -35 -49 -116 -162 -180 -250 -63 -88 -161 -224 -219 -303 -57 -79
-123 -171 -147 -205 l-43 -62 33 -28 c18 -15 35 -27 39 -27 4 0 105 125 225
277 359 456 775 981 1329 1673 231 289 523 651 649 805 127 154 262 319 301
366 38 47 119 146 180 220 493 604 1636 1939 1659 1939 5 0 -86 -136 -200
-300 -29 -41 -67 -95 -84 -120 -17 -25 -86 -123 -153 -217 -67 -95 -187 -265
-267 -378 -80 -114 -190 -269 -245 -346 -265 -368 -411 -572 -425 -592 -194
-285 -1378 -1874 -1881 -2525 -35 -46 -90 -118 -123 -160 -113 -149 -452 -585
-493 -638 -24 -29 -43 -59 -43 -67 0 -24 49 -63 65 -52 8 6 249 285 536 620
287 336 538 628 558 651 20 22 149 172 286 334 303 356 1492 1745 1584 1850
36 41 79 90 94 109 15 18 30 32 32 29 2 -2 -27 -44 -65 -93 -66 -85 -483 -623
-608 -785 -32 -41 -121 -156 -197 -255 -77 -99 -232 -299 -345 -445 -113 -146
-275 -355 -360 -465 -238 -309 -463 -596 -641 -820 -314 -395 -649 -838 -649
-860 0 -15 49 -57 61 -53 9 3 113 134 289 363 58 75 142 184 188 243 46 59
165 213 265 342 587 761 1383 1693 2088 2445 36 39 105 113 154 165 241 257
612 634 598 608 -8 -16 -475 -580 -1274 -1537 -167 -200 -315 -378 -329 -395
-36 -46 -373 -450 -380 -456 -3 -3 -57 -68 -120 -145 -63 -77 -147 -178 -186
-225 -356 -421 -1284 -1544 -1284 -1554 0 -15 42 -56 57 -56 9 0 193 193 864
910 167 179 397 424 510 545 113 121 272 292 354 380 82 88 225 241 319 340
94 99 232 246 306 325 74 80 205 219 291 310 86 91 167 176 179 190 12 14 20
20 18 13 -2 -10 -250 -314 -386 -473 -143 -169 -409 -483 -507 -600 -66 -78
-127 -150 -135 -160 -25 -29 -273 -338 -354 -440 -42 -52 -76 -100 -76 -107 0
-12 47 -53 61 -53 7 0 135 151 404 478 80 96 115 132 131 132 33 0 103 56 242
194 186 182 404 456 416 521 5 29 11 36 289 359 110 127 201 237 204 244 3 7
-2 21 -12 32 -9 10 -15 23 -14 28 2 6 138 171 301 369 164 197 372 448 463
558 91 109 165 206 164 215 0 8 -13 25 -28 37 l-28 22 -79 -82 c-98 -102 -200
-211 -369 -392 -71 -77 -164 -176 -205 -220 -42 -44 -107 -114 -146 -155 -39
-41 -107 -113 -150 -160 -44 -47 -114 -121 -155 -165 -41 -44 -147 -156 -235
-250 -123 -131 -612 -654 -889 -951 -278 -297 -549 -584 -552 -584 -7 0 17 32
127 166 112 137 126 154 356 429 145 174 1294 1555 1497 1800 55 66 173 208
262 315 90 107 311 372 492 588 180 217 338 408 350 425 l23 31 -27 28 c-15
15 -32 28 -38 28 -12 0 -855 -834 -1086 -1075 -128 -134 -327 -346 -781 -833
-32 -34 -58 -59 -58 -56 0 5 48 72 60 84 3 3 32 41 65 85 32 44 119 157 192
250 153 195 193 248 399 514 236 306 400 518 480 621 40 52 118 154 174 225
165 215 341 442 408 527 34 44 62 84 62 89 0 10 -50 58 -61 59 -6 0 -66 -69
-545 -630 -792 -926 -995 -1164 -1053 -1230 -76 -88 -309 -360 -685 -800 -331
-388 -508 -595 -650 -759 -60 -69 -132 -153 -160 -186 -28 -33 -66 -75 -85
-95 l-34 -35 25 35 c37 53 82 114 89 120 3 3 20 27 38 53 18 27 114 157 214
290 310 414 713 963 1047 1427 247 343 638 892 752 1055 304 436 694 998 763
1100 48 72 122 179 162 238 41 60 72 114 69 122 -8 23 -53 48 -69 38 -16 -9
-251 -269 -493 -544 -351 -398 -534 -608 -919 -1059 -193 -226 -630 -750 -985
-1181 -200 -245 -254 -310 -425 -521 -96 -120 -182 -226 -190 -235 -7 -10 -83
-103 -167 -208 -84 -104 -157 -195 -163 -201 -6 -7 -40 -48 -75 -93 -71 -89
-95 -103 -32 -18 22 30 83 114 134 188 83 118 368 515 628 874 48 66 161 224
252 350 91 127 234 326 319 443 85 118 166 230 180 250 14 21 75 105 135 189
60 83 176 245 258 360 82 114 240 334 351 488 111 154 334 465 495 690 161
226 326 454 367 508 40 54 73 105 73 113 0 19 -39 53 -60 53 -8 0 -31 -21 -50
-47 -19 -26 -140 -182 -269 -347 -129 -165 -249 -318 -265 -340 -17 -22 -85
-109 -151 -194 -66 -85 -136 -175 -156 -200 -67 -87 -675 -867 -890 -1143
-379 -484 -632 -809 -869 -1113 -80 -103 -172 -221 -205 -264 -33 -42 -142
-182 -242 -311 -400 -514 -578 -739 -581 -735 -3 3 194 299 411 615 40 58 173
254 297 435 123 182 330 485 460 675 129 190 270 397 313 460 43 63 117 171
164 240 47 69 132 194 189 278 57 83 151 221 208 305 57 83 142 208 189 277
47 69 124 181 171 250 46 69 115 170 153 225 69 101 171 250 365 535 227 333
336 494 413 605 l79 116 -29 24 c-17 13 -35 24 -42 25 -6 0 -36 -31 -65 -69
-29 -38 -147 -192 -262 -343 -297 -387 -830 -1082 -1101 -1433 -33 -44 -121
-159 -195 -255 -74 -96 -155 -202 -180 -235 -52 -67 -600 -783 -701 -915 -36
-47 -112 -146 -169 -220 -57 -74 -131 -171 -165 -215 -34 -44 -151 -197 -261
-340 -110 -143 -249 -325 -309 -404 -165 -215 -336 -434 -353 -451 -13 -13
-14 -13 -6 0 11 21 228 342 355 526 208 301 300 432 594 852 343 489 296 423
557 787 110 154 224 314 254 355 29 41 107 149 173 240 66 91 156 215 200 275
43 61 128 176 188 256 59 81 162 220 228 310 119 162 668 895 905 1208 l124
163 -27 24 c-16 13 -34 24 -42 24 -14 0 -13 1 -666 -825 -426 -539 -692 -874
-1049 -1325 -251 -316 -387 -488 -680 -859 -140 -178 -327 -414 -415 -525 -88
-110 -236 -298 -330 -416 -93 -118 -175 -222 -182 -230 -7 -8 -123 -154 -258
-325 -240 -302 -277 -347 -260 -315 14 25 291 433 560 825 68 99 159 232 202
295 43 63 197 288 342 500 145 212 306 446 356 520 51 74 182 266 291 425 110
160 235 342 277 405 71 103 177 259 423 617 44 65 217 318 384 563 167 245
363 531 435 635 172 248 163 228 119 262 l-37 27 -41 -49 c-22 -27 -120 -142
-216 -255 -97 -113 -281 -332 -410 -486 -205 -245 -303 -365 -641 -779 -120
-147 -602 -751 -779 -976 -96 -122 -197 -250 -225 -285 -27 -34 -67 -84 -87
-110 -21 -27 -79 -103 -130 -168 -107 -137 -133 -171 -441 -570 -214 -278
-281 -359 -205 -248 34 50 376 524 438 607 119 160 729 973 781 1040 495 644
1066 1365 1455 1835 34 41 121 146 193 234 72 87 131 164 131 170 0 15 -42 56
-57 56 -11 0 -175 -172 -482 -505 -107 -115 -215 -232 -241 -260 -129 -139
-710 -791 -810 -909 -19 -23 -68 -79 -110 -126 -126 -143 -176 -201 -525 -610
-186 -217 -353 -412 -370 -433 -18 -21 -53 -62 -77 -92 -23 -30 -46 -54 -51
-55 -4 0 25 41 64 91 207 265 397 506 489 619 21 25 129 160 241 300 111 140
226 282 254 316 27 33 131 161 230 284 99 123 243 300 320 394 78 94 229 279
337 411 109 132 301 365 427 518 127 153 233 282 236 287 18 29 -41 -7 -225
-137z"/>
</g>
</svg>
